<svg width="162" height="162" viewBox="0 0 162 162" fill="none" xmlns="http://www.w3.org/2000/svg">
<circle cx="81" cy="81" r="81" fill="url(#paint0_linear_11_305)"/>
<path fill-rule="evenodd" clip-rule="evenodd" d="M61.2722 57.9569C61.2722 53.0955 63.2033 48.4333 66.6408 44.9958C70.0783 41.5583 74.7406 39.6272 79.6019 39.6272C84.4633 39.6272 89.1255 41.5583 92.563 44.9958C96.0005 48.4333 97.9317 53.0955 97.9317 57.9569C97.9317 62.8182 96.0005 67.4805 92.563 70.918C89.1255 74.3555 84.4633 76.2866 79.6019 76.2866C74.7406 76.2866 70.0783 74.3555 66.6408 70.918C63.2033 67.4805 61.2722 62.8182 61.2722 57.9569ZM46.0015 115.41C46.1388 106.59 49.7393 98.1766 56.0256 91.9874C62.312 85.7982 70.7801 82.3291 79.6019 82.3291C88.4238 82.3291 96.8918 85.7982 103.178 91.9874C109.465 98.1766 113.065 106.59 113.202 115.41C113.213 116.004 113.05 116.588 112.734 117.091C112.418 117.594 111.962 117.994 111.422 118.241C101.439 122.819 90.5841 125.181 79.6019 125.166C68.2538 125.166 57.4718 122.689 47.7815 118.241C47.2417 117.994 46.7859 117.594 46.4697 117.091C46.1536 116.588 45.9909 116.004 46.0015 115.41Z" fill="white"/>
<defs>
<linearGradient id="paint0_linear_11_305" x1="81" y1="0" x2="81" y2="162" gradientUnits="userSpaceOnUse">
<stop stop-color="#040425"/>
<stop offset="1" stop-color="#0F0F8B"/>
</linearGradient>
</defs>
</svg>
